<?xml version="1.0" encoding="UTF-8" standalone="no"?>
<svg
   xmlns:dc="http://purl.org/dc/elements/1.1/"
   xmlns:cc="http://creativecommons.org/ns#"
   xmlns:rdf="http://www.w3.org/1999/02/22-rdf-syntax-ns#"
   xmlns:svg="http://www.w3.org/2000/svg"
   xmlns="http://www.w3.org/2000/svg"
   id="svg71"
   version="1.1"
   viewBox="0 0 41.804169 46.566635"
   height="46.566635mm"
   width="41.804169mm">
  <defs
     id="defs65">
    <linearGradient
       gradientUnits="userSpaceOnUse"
       gradientTransform="matrix(0.26458333,0,0,-0.26458333,84.93125,-65.97195)"
       y2="-852.20001"
       y1="-826.34998"
       x2="99.252998"
       x1="84.329002"
       id="a">
      <stop
         id="stop7"
         offset="0"
         stop-opacity="0"
         stop-color="#991700" />
      <stop
         id="stop9"
         offset="1"
         stop-opacity=".1"
         stop-color="#991700" />
    </linearGradient>
    <filter
       height="1.1582"
       width="1.2367001"
       y="-0.079075001"
       x="-0.11833"
       id="b"
       style="color-interpolation-filters:sRGB">
      <feGaussianBlur
         id="feGaussianBlur12"
         stdDeviation="1.380525" />
    </filter>
  </defs>
  <metadata
     id="metadata68">
    <rdf:RDF>
      <cc:Work
         rdf:about="">
        <dc:format>image/svg+xml</dc:format>
        <dc:type
           rdf:resource="http://purl.org/dc/dcmitype/StillImage" />
        <dc:title></dc:title>
      </cc:Work>
    </rdf:RDF>
  </metadata>
  <g
     transform="translate(-84.93125,-125.55004)"
     id="layer1">
    <path
       id="path21"
       d="M 124.83042,146.22653 89.535,126.17111 c -1.508125,-0.84666 -2.8575,-0.76729 -3.677708,0.0265 -0.582084,0.55563 -0.899584,1.45521 -0.899584,2.61938 v 40.03145 c 0,1.16417 0.343959,2.06375 0.899584,2.61938 0.846666,0.82021 2.169583,0.89958 3.677708,0.0265 l 35.29542,-20.05542 c 2.54,-1.42875 2.54,-3.75708 0,-5.21229 z"
       class="st0"
       style="fill:#f4481e;stroke-width:0.26458332" />
    <path
       id="path23"
       d="M 124.83042,146.49111 89.535,126.4357 c -2.54,-1.42875 -4.60375,-0.23813 -4.60375,2.64583 v -0.26458 c 0,-2.91042 2.06375,-4.10105 4.60375,-2.64584 l 35.29542,20.05542 c 1.32291,0.74083 1.95791,1.74625 1.87854,2.75167 -0.0529,-0.89959 -0.66146,-1.79917 -1.87854,-2.48709 z"
       class="st2"
       style="opacity:0.1;fill:#ffffff;stroke-width:0.26458332;enable-background:new" />
    <path
       id="path25"
       d="m 121.33792,153.44965 c 0.42333,-1.4552 0.635,-3.01625 0.635,-4.60375 0,-9.33979 -7.59355,-16.93333 -16.93334,-16.93333 -9.339788,0 -16.93333,7.59354 -16.93333,16.93333 0,7.83167 5.318125,14.4198 12.54125,16.35125 z"
       class="st3"
       style="fill:#ffd119;stroke-width:0.26458332" />
    <circle
       id="circle27"
       r="10.583333"
       cy="148.8459"
       cx="105.03958"
       class="st4"
       style="fill:#ff8c00;stroke-width:0.26458332" />
    <path
       id="path29"
       d="m 105.03958,131.91257 c -9.339788,0 -16.93333,7.59354 -16.93333,16.93333 0,7.83167 5.318125,14.4198 12.54125,16.35125 l 20.69042,-11.7475 c 0.42333,-1.4552 0.635,-3.01625 0.635,-4.60375 0,-9.33979 -7.59355,-16.93333 -16.93334,-16.93333 z"
       class="st5"
       style="fill:url(#a);stroke-width:0.26458332" />
    <g
       id="g33"
       transform="matrix(0.26458333,0,0,0.26458333,85.325876,125.9572)"
       style="opacity:0.722;fill:#808080;filter:url(#b)">
      <path
         id="path31"
         d="m 76,67 v 24.6 c -1.4,-0.8 -3,-1.3 -4.7,-1.3 -5.2,0 -9.3,4.2 -9.3,9.3 0,5.2 4.2,9.3 9.3,9.3 5.2,0 9.7,-4.2 9.7,-9.3 V 77 h 9 V 67 Z"
         class="st6"
         style="fill:#808080" />
    </g>
    <path
       id="path35"
       d="m 105.03958,143.28965 v 6.50875 c -0.37041,-0.21166 -0.79375,-0.34395 -1.24354,-0.34395 -1.37583,0 -2.46062,1.11125 -2.46062,2.46062 0,1.37583 1.11125,2.46063 2.46062,2.46063 1.37583,0 2.56646,-1.11125 2.56646,-2.46063 v -5.97958 h 2.38125 v -2.64584 z"
       class="st6"
       style="fill:#fafafa;stroke-width:0.26458332" />
    <path
       id="path37"
       d="m 105.03958,132.17715 c 9.31334,0 16.88042,7.51417 16.93334,16.8275 v -0.15875 c 0,-9.33979 -7.59355,-16.93333 -16.93334,-16.93333 -9.339788,0 -16.93333,7.59354 -16.93333,16.93333 v 0.1323 c 0.07937,-9.28688 7.62,-16.80105 16.93333,-16.80105 z"
       class="st7"
       style="opacity:0.3;fill:#ffffff;stroke-width:0.26458332;enable-background:new" />
  </g>
</svg>
